<?xml version="1.0" standalone="no"?>
<svg xmlns="http://www.w3.org/2000/svg" viewBox="0 0 99.312 24" width="99.312" height="24"><path fill="#f6f3f3" fill-rule="nonzero" d="M0.82 19.37Q0 18.91 0 18.12L0 18.12Q0 17.18 1.00 15.19Q1.99 13.20 3.65 10.61L3.65 10.61Q2.18 10.49 1.06 10.49L1.06 10.49L0.22 10.49Q0.67 9.24 2.71 9.24L2.71 9.24Q3.36 9.24 4.44 9.41L4.44 9.41Q6.29 6.62 8.20 4.16Q10.10 1.70 11.21 0.67L11.21 0.67Q11.90 0 12.36 0L12.36 0Q12.86 0 13.63 0.77L13.63 0.77Q13.15 1.15 12.24 3.88Q11.33 6.60 10.61 9.83Q9.89 13.06 9.89 15.02L9.89 15.02Q9.89 15.98 10.09 16.46Q10.30 16.94 10.78 16.94L10.78 16.94Q12.10 16.94 13.92 13.39L13.92 13.39L14.16 13.63Q13.42 15.60 12.30 16.80Q11.18 18 10.01 18L10.01 18Q9.05 18 8.59 17.15Q8.14 16.30 8.14 14.78L8.14 14.78Q8.14 13.25 8.54 11.21L8.54 11.21Q7.01 10.97 4.99 10.73L4.99 10.73Q2.64 15.05 0.82 19.37L0.82 19.37ZM8.71 10.37Q9.22 8.11 10.01 5.69Q10.80 3.26 11.59 1.51L11.59 1.51Q10.51 2.18 8.94 4.34Q7.37 6.50 5.62 9.62L5.62 9.62Q6.58 9.82 7.63 10.10L7.63 10.10L8.71 10.37ZM15.58 17.52Q15.24 17.52 15.02 17.35Q14.81 17.18 14.81 16.87L14.81 16.87Q14.81 16.49 15.26 16.19Q15.72 15.89 16.20 15.89L16.20 15.89Q16.82 15.89 16.82 16.46L16.82 16.46Q16.82 16.82 16.43 17.17Q16.03 17.52 15.58 17.52L15.58 17.52ZM25.01 19.37Q23.40 19.37 22.33 18.55Q21.26 17.74 20.77 16.40Q20.28 15.07 20.28 13.51L20.28 13.51Q20.28 10.44 21.79 7.28Q23.30 4.13 25.61 2.08Q27.91 0.02 30.14 0.02L30.14 0.02Q31.18 0.02 31.76 0.53Q32.35 1.03 32.35 2.09L32.35 2.09Q32.35 3.02 31.92 4.25Q31.49 5.47 30.84 6.34Q30.19 7.20 29.57 7.20L29.57 7.20Q29.09 7.20 28.82 6.65L28.82 6.65Q29.71 5.64 30.55 4.20Q31.39 2.76 31.39 1.82L31.39 1.82Q31.39 1.32 31.10 1.03Q30.82 0.74 30.22 0.74L30.22 0.74Q28.56 0.74 26.66 2.89Q24.77 5.04 23.48 8.16Q22.20 11.28 22.20 13.92L22.20 13.92Q22.20 15.89 23.04 17.22Q23.88 18.55 25.58 18.55L25.58 18.55Q26.81 18.55 28.08 17.84Q29.35 17.14 30.41 15.96Q31.46 14.78 32.11 13.39L32.11 13.39L32.45 13.63Q31.15 16.18 29.22 17.77Q27.29 19.37 25.01 19.37L25.01 19.37ZM41.93 19.37Q40.58 19.37 39.92 18.91Q39.26 18.46 39.26 17.45L39.26 17.45Q39.26 17.38 39.38 17.38L39.38 17.38Q39.48 17.38 39.96 17.50Q40.44 17.62 41.64 17.62L41.64 17.62Q44.30 17.62 46.50 16.81Q48.70 16.01 49.94 14.69Q51.19 13.37 51.19 11.93L51.19 11.93Q51.19 10.18 49.46 9.54Q47.74 8.90 45.14 8.90L45.14 8.90L43.34 8.93Q42.98 10.15 42.31 12.60L42.31 12.60Q41.81 14.47 41.18 16.66L41.18 16.66Q40.58 16.66 40.18 16.32Q39.77 15.98 39.77 15.50L39.77 15.50Q39.77 15.19 39.91 14.74Q40.06 14.28 40.10 14.14L40.10 14.14Q40.85 11.64 42.35 7.48Q43.85 3.31 45.19 0.67L45.19 0.67Q43.78 0.91 42.41 1.73L42.41 1.73Q41.98 1.97 41.88 1.97L41.88 1.97Q41.69 1.97 41.40 1.73Q41.11 1.49 41.11 1.32L41.11 1.32Q42.70 0.67 43.91 0.34Q45.12 0 46.80 0L46.80 0Q49.01 0 50.68 0.80Q52.34 1.61 52.34 3.82L52.34 3.82Q52.34 5.95 50.75 7.03Q49.15 8.11 46.85 8.50L46.85 8.50Q52.32 8.83 52.32 12.36L52.32 12.36Q52.32 14.52 50.57 16.12Q48.82 17.71 46.36 18.54Q43.90 19.37 41.93 19.37L41.93 19.37ZM43.49 8.38Q46.58 8.28 48.74 7.15Q50.90 6.02 50.90 3.62L50.90 3.62Q50.90 0.50 46.85 0.50L46.85 0.50Q46.54 0.50 46.39 0.53L46.39 0.53Q44.98 3.29 43.49 8.38L43.49 8.38ZM55.99 18.34Q54.58 18.34 53.82 17.56Q53.06 16.78 53.06 15.55L53.06 15.55Q53.06 14.14 54 12.50Q54.94 10.87 56.36 9.76Q57.79 8.64 59.16 8.64L59.16 8.64Q60.65 8.64 60.65 10.10L60.65 10.10Q60.65 11.28 59.76 12.30Q58.87 13.32 57.48 13.97Q56.09 14.62 54.70 14.76L54.70 14.76Q54.60 15.17 54.60 15.62L54.60 15.62Q54.60 16.49 55.03 17.06Q55.46 17.64 56.50 17.64L56.50 17.64Q57.96 17.64 59.45 16.42Q60.94 15.19 61.87 13.39L61.87 13.39L62.16 13.61Q61.20 15.74 59.50 17.04Q57.79 18.34 55.99 18.34L55.99 18.34ZM54.82 14.30Q55.82 13.94 56.93 13.30Q58.03 12.65 58.81 11.77Q59.59 10.90 59.59 9.94L59.59 9.94Q59.59 9.65 59.48 9.52Q59.38 9.38 59.09 9.38L59.09 9.38Q58.34 9.38 57.47 10.13Q56.59 10.87 55.86 12.02Q55.13 13.18 54.82 14.30L54.82 14.30ZM62.54 18.41Q61.75 18.41 61.26 17.89Q60.77 17.38 60.77 16.42L60.77 16.42Q60.77 15 61.79 13.25Q62.81 11.50 64.37 10.27Q65.93 9.05 67.42 9.05L67.42 9.05Q68.35 9.05 68.98 9.55Q69.60 10.06 69.60 10.85L69.60 10.85Q69.60 11.40 69.29 11.64Q68.98 11.88 68.42 11.88L68.42 11.88Q68.54 11.45 68.54 11.04L68.54 11.04Q68.54 10.44 68.26 10.07Q67.97 9.70 67.37 9.70L67.37 9.70Q66.31 9.70 65.15 10.87Q63.98 12.05 63.20 13.68Q62.42 15.31 62.42 16.49L62.42 16.49Q62.42 17.42 63.07 17.42L63.07 17.42Q64.03 17.42 65.33 15.90Q66.62 14.38 68.11 12.19L68.11 12.19Q68.42 12.24 68.75 12.40Q69.07 12.55 69.07 12.79L69.07 12.79Q69.07 12.98 68.84 13.40Q68.62 13.82 68.57 13.90L68.57 13.90Q68.16 14.59 67.92 15.13Q67.68 15.67 67.68 16.13L67.68 16.13Q67.68 16.54 67.88 16.86Q68.09 17.18 68.50 17.18L68.50 17.18Q69.19 17.18 70.25 16.19Q71.30 15.19 72.34 13.39L72.34 13.39L72.58 13.63Q72.07 14.90 71.28 15.90Q70.49 16.90 69.58 17.45Q68.66 18 67.82 18L67.82 18Q66.98 18 66.54 17.51Q66.10 17.02 66.10 16.32L66.10 16.32Q66.10 16.01 66.17 15.62L66.17 15.62Q65.09 17.06 64.24 17.74Q63.38 18.41 62.54 18.41L62.54 18.41ZM73.66 18Q72.86 18 72.36 17.29Q71.86 16.58 71.86 15.58L71.86 15.58Q71.86 14.69 72.23 13.38Q72.60 12.07 73.12 11.10Q73.63 10.13 73.97 10.13L73.97 10.13Q74.11 10.13 74.39 10.27Q74.66 10.42 74.86 10.61L74.86 10.61Q74.35 11.40 73.80 12.88Q73.25 14.35 73.25 15.43L73.25 15.43Q73.25 15.98 73.43 16.51Q73.61 17.04 74.11 17.04L74.11 17.04Q74.95 17.04 75.95 15.49Q76.94 13.94 78.10 11.57L78.10 11.57L78.48 10.78Q79.63 10.99 79.63 11.40L79.63 11.40Q79.63 11.45 79.52 11.72Q79.42 12 79.32 12.22L79.32 12.22Q78.77 13.44 78.40 14.51Q78.02 15.58 78.02 16.32L78.02 16.32Q78.02 17.28 78.82 17.28L78.82 17.28Q79.34 17.28 80.06 16.81Q80.78 16.34 81.53 15.46Q82.27 14.57 82.82 13.39L82.82 13.39L83.14 13.61Q82.63 14.88 81.83 15.88Q81.02 16.87 80.09 17.44Q79.15 18 78.31 18L78.31 18Q76.63 18 76.63 16.22L76.63 16.22Q76.63 15.74 76.80 15.02L76.80 15.02Q76.03 16.39 75.26 17.20Q74.50 18 73.66 18L73.66 18ZM84.41 18.38Q82.27 18.38 82.27 16.01L82.27 16.01Q82.27 14.98 82.64 13.45Q83.02 11.93 83.66 10.22L83.66 10.22Q83.09 10.13 82.80 10.03L82.80 10.03L82.80 9.60Q83.66 9.70 83.86 9.70L83.86 9.70Q84.91 6.96 86.12 4.96Q87.34 2.95 88.03 2.95L88.03 2.95Q88.22 2.95 88.38 3.10Q88.54 3.24 88.54 3.48L88.54 3.48Q88.54 3.79 88.24 4.39Q87.94 4.99 87.22 6.24L87.22 6.24Q87.10 6.48 86.47 7.57Q85.85 8.66 85.34 9.77L85.34 9.77L86.23 9.77Q88.22 9.77 89.66 9.62L89.66 9.62L89.66 10.06Q87.05 10.34 85.44 10.34L85.44 10.34L85.08 10.34Q83.76 13.37 83.76 15.58L83.76 15.58Q83.76 16.61 84.07 17.05Q84.38 17.50 85.10 17.50L85.10 17.50Q86.33 17.50 87.53 16.40Q88.73 15.31 89.66 13.39L89.66 13.39L89.98 13.63Q89.09 15.72 87.58 17.05Q86.06 18.38 84.41 18.38L84.41 18.38ZM90.24 24Q89.59 24 89.16 23.66Q88.73 23.33 88.73 22.73L88.73 22.73Q88.73 21.77 89.34 21.04Q89.95 20.30 90.84 19.76Q91.73 19.22 93.38 18.38L93.38 18.38Q94.10 16.54 94.73 13.99L94.73 13.99Q93.86 15.41 93 16.22Q92.14 17.04 91.22 17.04L91.22 17.04Q90.46 17.04 89.88 16.54Q89.30 16.03 89.30 15.10L89.30 15.10Q89.30 14.23 89.69 12.98Q90.07 11.74 90.58 10.80Q91.08 9.86 91.42 9.86L91.42 9.86Q91.63 9.86 92.05 10.04Q92.47 10.22 92.47 10.42L92.47 10.42Q91.99 11.11 91.44 12.66Q90.89 14.21 90.89 15.12L90.89 15.12Q90.89 16.08 91.75 16.08L91.75 16.08Q92.40 16.08 93.28 15.19Q94.15 14.30 94.94 13.01L94.94 13.01Q95.06 12.60 95.18 11.90L95.18 11.90Q95.28 11.45 95.58 11.06Q95.88 10.68 96.41 10.68L96.41 10.68Q96.62 10.68 96.91 10.75L96.91 10.75Q96.91 11.40 96.37 13.42Q95.83 15.43 95.04 17.47L95.04 17.47Q96.24 16.99 97.30 15.97Q98.35 14.95 99 13.39L99 13.39L99.31 13.63Q98.42 16.44 94.78 18.12L94.78 18.12Q93.72 20.71 92.56 22.36Q91.39 24 90.24 24L90.24 24ZM90.12 23.23Q90.38 23.23 90.86 22.79Q91.34 22.34 91.94 21.38Q92.54 20.42 93.14 18.96L93.14 18.96Q91.87 19.63 91.14 20.10Q90.41 20.57 89.94 21.17Q89.47 21.77 89.47 22.51L89.47 22.51Q89.47 22.75 89.64 22.99Q89.81 23.23 90.12 23.23L90.12 23.23Z"></path></svg>